<svg xmlns="http://www.w3.org/2000/svg" viewBox="20.07179718017578 -5.931201171875003 595.857389831543 595.86240234375"><line stroke="#000" opacity="1" x1="275.3299865722656" y1="44.53200149536133" x2="330.2099914550781" y2="44.68000030517578" stroke-width="1.65517333984375"/><line stroke="#000" opacity="1" x1="181.593994140625" y1="43.7239990234375" x2="275.3299865722656" y2="44.53200149536133" stroke-width="1.65517333984375"/><line stroke="#000" opacity="1" x1="163.43299865722656" y1="43.972999572753906" x2="181.593994140625" y2="43.7239990234375" stroke-width="1.65517333984375"/><line stroke="#000" opacity="1" x1="163.43299865722656" y1="43.972999572753906" x2="70.25" y2="44.297000885009766" stroke-width="1.65517333984375"/><line stroke="#000" opacity="1" x1="395.00799560546875" y1="44.27299880981445" x2="455.1470031738281" y2="44.20199966430664" stroke-width="1.65517333984375"/><line stroke="#000" opacity="1" x1="351.7130126953125" y1="44.20199966430664" x2="395.00799560546875" y2="44.27299880981445" stroke-width="1.65517333984375"/><line stroke="#000" opacity="1" x1="351.7130126953125" y1="44.20199966430664" x2="330.2099914550781" y2="44.68000030517578" stroke-width="1.65517333984375"/><line stroke="#000" opacity="1" x1="480.5350036621094" y1="44.5620002746582" x2="455.1470031738281" y2="44.20199966430664" stroke-width="1.65517333984375"/><line stroke="#000" opacity="1" x1="480.5350036621094" y1="44.5620002746582" x2="565.718017578125" y2="44.30400085449219" stroke-width="1.65517333984375"/><line stroke="#000" opacity="1" x1="565.7210083007812" y1="214.9980010986328" x2="565.791015625" y2="154.86000061035156" stroke-width="1.65517333984375"/><line stroke="#000" opacity="1" x1="565.7940063476562" y1="258.2919921875" x2="565.7210083007812" y2="214.9980010986328" stroke-width="1.65517333984375"/><line stroke="#000" opacity="1" x1="565.7940063476562" y1="258.2919921875" x2="565.3159790039062" y2="279.7969970703125" stroke-width="1.65517333984375"/><line stroke="#000" opacity="1" x1="565.4310302734375" y1="129.4720001220703" x2="565.791015625" y2="154.86000061035156" stroke-width="1.65517333984375"/><line stroke="#000" opacity="1" x1="565.4310302734375" y1="129.4720001220703" x2="565.718017578125" y2="44.30400085449219" stroke-width="1.65517333984375"/><line stroke="#000" opacity="1" x1="565.4639892578125" y1="334.677001953125" x2="565.3159790039062" y2="279.7969970703125" stroke-width="1.65517333984375"/><line stroke="#000" opacity="1" x1="566.2739868164062" y1="428.4129943847656" x2="565.4639892578125" y2="334.677001953125" stroke-width="1.65517333984375"/><line stroke="#000" opacity="1" x1="566.0250244140625" y1="446.5719909667969" x2="566.2739868164062" y2="428.4129943847656" stroke-width="1.65517333984375"/><line stroke="#000" opacity="1" x1="566.0250244140625" y1="446.5719909667969" x2="565.7030029296875" y2="539.7500038146973" stroke-width="1.65517333984375"/><line stroke="#000" opacity="1" x1="480.49700927734375" y1="539.7559814453125" x2="354.135986328125" y2="539.7529907226562" stroke-width="1.65517333984375"/><line stroke="#000" opacity="1" x1="480.49700927734375" y1="539.7559814453125" x2="565.7030029296875" y2="539.7500038146973" stroke-width="1.65517333984375"/><line stroke="#000" opacity="1" x1="334.0329895019531" y1="539.7520141601562" x2="275.489990234375" y2="540.2760009765625" stroke-width="1.65517333984375"/><line stroke="#000" opacity="1" x1="334.0329895019531" y1="539.7520141601562" x2="354.135986328125" y2="539.7529907226562" stroke-width="1.65517333984375"/><line stroke="#000" opacity="1" x1="275.489990234375" y1="540.2760009765625" x2="70.39199829101562" y2="539.6090087890625" stroke-width="1.65517333984375"/><line stroke="#000" opacity="1" x1="70.25" y1="275.9679870605469" x2="69.72699737548828" y2="334.5090026855469" stroke-width="1.65517333984375"/><line stroke="#000" opacity="1" x1="70.25" y1="275.9679870605469" x2="70.25" y2="255.86300659179688" stroke-width="1.65517333984375"/><line stroke="#000" opacity="1" x1="69.72699737548828" y1="334.5090026855469" x2="70.39199829101562" y2="539.6090087890625" stroke-width="1.65517333984375"/><line stroke="#000" opacity="1" x1="70.25" y1="129.5019989013672" x2="70.25" y2="255.86300659179688" stroke-width="1.65517333984375"/><line stroke="#000" opacity="1" x1="70.25" y1="129.5019989013672" x2="70.25" y2="44.297000885009766" stroke-width="1.65517333984375"/><line stroke="#f00" opacity="1" x1="218.2310028076172" y1="129.70899963378906" x2="275.45098876953125" y2="129.2790069580078" stroke-width="1.65517333984375"/><line stroke="#f00" opacity="1" x1="196.63800048828125" y1="129.26499938964844" x2="218.2310028076172" y2="129.70899963378906" stroke-width="1.65517333984375"/><line stroke="#f00" opacity="1" x1="196.63800048828125" y1="129.26499938964844" x2="70.25" y2="129.5019989013672" stroke-width="1.65517333984375"/><line stroke="#f00" opacity="1" x1="275.45098876953125" y1="129.2790069580078" x2="480.4830017089844" y2="129.51600646972656" stroke-width="1.65517333984375"/><line stroke="#f00" opacity="1" x1="565.718017578125" y1="44.30400085449219" x2="522.885986328125" y2="61.2869987487793" stroke-width="1.65517333984375"/><line stroke="#f00" opacity="1" x1="480.5350036621094" y1="44.5620002746582" x2="498.0369873046875" y2="86.13600158691406" stroke-width="1.65517333984375"/><line stroke="#f00" opacity="1" x1="480.5350036621094" y1="44.5620002746582" x2="522.885986328125" y2="61.2869987487793" stroke-width="1.65517333984375"/><line stroke="#f00" opacity="1" x1="497.53399658203125" y1="61.79999923706055" x2="509.91400146484375" y2="74.1969985961914" stroke-width="1.65517333984375"/><line stroke="#f00" opacity="1" x1="480.4830017089844" y1="129.51600646972656" x2="522.9030151367188" y2="87.18000030517578" stroke-width="1.65517333984375"/><line stroke="#f00" opacity="1" x1="395.00799560546875" y1="44.27299880981445" x2="437.82501220703125" y2="61.2869987487793" stroke-width="1.65517333984375"/><line stroke="#f00" opacity="1" x1="480.5350036621094" y1="44.5620002746582" x2="462.67498779296875" y2="86.13600158691406" stroke-width="1.65517333984375"/><line stroke="#f00" opacity="1" x1="455.1470031738281" y1="54.23699951171875" x2="480.5350036621094" y2="44.5620002746582" stroke-width="1.65517333984375"/><line stroke="#f00" opacity="1" x1="455.1470031738281" y1="54.23699951171875" x2="437.82501220703125" y2="61.2869987487793" stroke-width="1.65517333984375"/><line stroke="#f00" opacity="1" x1="463.177001953125" y1="61.79999923706055" x2="455.1470031738281" y2="54.23699951171875" stroke-width="1.65517333984375"/><line stroke="#f00" opacity="1" x1="275.45098876953125" y1="129.2790069580078" x2="275.3299865722656" y2="44.53200149536133" stroke-width="1.65517333984375"/><line stroke="#f00" opacity="1" x1="275.34100341796875" y1="214.48500061035156" x2="335.6719970703125" y2="274.6570129394531" stroke-width="1.65517333984375"/><line stroke="#f00" opacity="1" x1="275.34100341796875" y1="214.48500061035156" x2="155.36399841308594" y2="334.46099853515625" stroke-width="1.65517333984375"/><line stroke="#f00" opacity="1" x1="322.625" y1="63.72100067138672" x2="480.4830017089844" y2="129.51600646972656" stroke-width="1.65517333984375"/><line stroke="#f00" opacity="1" x1="322.625" y1="63.72100067138672" x2="275.3299865722656" y2="44.53200149536133" stroke-width="1.65517333984375"/><line stroke="#f00" opacity="1" x1="196.63800048828125" y1="77.08799743652344" x2="275.3299865722656" y2="44.53200149536133" stroke-width="1.65517333984375"/><line stroke="#f00" opacity="1" x1="196.63800048828125" y1="77.08799743652344" x2="70.25" y2="129.5019989013672" stroke-width="1.65517333984375"/><line stroke="#f00" opacity="1" x1="275.447998046875" y1="334.6400146484375" x2="215.41400146484375" y2="334.3739929199219" stroke-width="1.65517333984375"/><line stroke="#f00" opacity="1" x1="275.447998046875" y1="334.6400146484375" x2="275.406005859375" y2="275.0090026855469" stroke-width="1.65517333984375"/><line stroke="#f00" opacity="1" x1="196.60800170898438" y1="181.91700744628906" x2="174.62399291992188" y2="233.7030029296875" stroke-width="1.65517333984375"/><line stroke="#f00" opacity="1" x1="159.28500366210938" y1="219.2550048828125" x2="122.66400146484375" y2="255.86300659179688" stroke-width="1.65517333984375"/><line stroke="#f00" opacity="1" x1="196.60800170898438" y1="181.91700744628906" x2="196.63800048828125" y2="129.26499938964844" stroke-width="1.65517333984375"/><line stroke="#f00" opacity="1" x1="155.36399841308594" y1="334.46099853515625" x2="70.25" y2="275.9679870605469" stroke-width="1.65517333984375"/><line stroke="#f00" opacity="1" x1="275.34100341796875" y1="214.48500061035156" x2="218.2310028076172" y2="129.70899963378906" stroke-width="1.65517333984375"/><line stroke="#f00" opacity="1" x1="275.34100341796875" y1="214.48500061035156" x2="309.6619873046875" y2="163.9510040283203" stroke-width="1.65517333984375"/><line stroke="#f00" opacity="1" x1="335.34698486328125" y1="225.94500732421875" x2="322.33599853515625" y2="194.61300659179688" stroke-width="1.65517333984375"/><line stroke="#f00" opacity="1" x1="322.625" y1="63.72100067138672" x2="309.6619873046875" y2="95.06900024414062" stroke-width="1.65517333984375"/><line stroke="#f00" opacity="1" x1="351.7130126953125" y1="44.20199966430664" x2="480.4830017089844" y2="129.51600646972656" stroke-width="1.65517333984375"/><line stroke="#f00" opacity="1" x1="335.6719970703125" y1="274.6570129394531" x2="480.4830017089844" y2="129.51600646972656" stroke-width="1.65517333984375"/><line stroke="#f00" opacity="1" x1="305.385986328125" y1="304.65899658203125" x2="335.6719970703125" y2="274.6570129394531" stroke-width="1.65517333984375"/><line stroke="#f00" opacity="1" x1="155.36399841308594" y1="334.46099853515625" x2="215.531005859375" y2="394.79901123046875" stroke-width="1.65517333984375"/><line stroke="#f00" opacity="1" x1="155.36399841308594" y1="334.46099853515625" x2="104.8270034790039" y2="368.7829895019531" stroke-width="1.65517333984375"/><line stroke="#f00" opacity="1" x1="166.822998046875" y1="394.4679870605469" x2="135.49099731445312" y2="381.4570007324219" stroke-width="1.65517333984375"/><line stroke="#f00" opacity="1" x1="215.531005859375" y1="394.79901123046875" x2="70.39199829101562" y2="539.6090087890625" stroke-width="1.65517333984375"/><line stroke="#f00" opacity="1" x1="245.53399658203125" y1="364.510986328125" x2="215.531005859375" y2="394.79901123046875" stroke-width="1.65517333984375"/><line stroke="#f00" opacity="1" x1="480.2879943847656" y1="391.77398681640625" x2="480.7170104980469" y2="334.55499267578125" stroke-width="1.65517333984375"/><line stroke="#f00" opacity="1" x1="480.7330017089844" y1="413.3680114746094" x2="480.2879943847656" y2="391.77398681640625" stroke-width="1.65517333984375"/><line stroke="#f00" opacity="1" x1="480.7330017089844" y1="413.3680114746094" x2="480.49700927734375" y2="539.7559814453125" stroke-width="1.65517333984375"/><line stroke="#f00" opacity="1" x1="480.7170104980469" y1="334.55499267578125" x2="480.4830017089844" y2="129.51600646972656" stroke-width="1.65517333984375"/><line stroke="#f00" opacity="1" x1="565.718017578125" y1="44.30400085449219" x2="548.7050170898438" y2="87.12100219726562" stroke-width="1.65517333984375"/><line stroke="#f00" opacity="1" x1="565.4310302734375" y1="129.4720001220703" x2="523.8569946289062" y2="111.97000122070312" stroke-width="1.65517333984375"/><line stroke="#f00" opacity="1" x1="565.4310302734375" y1="129.4720001220703" x2="548.7050170898438" y2="87.12100219726562" stroke-width="1.65517333984375"/><line stroke="#f00" opacity="1" x1="548.1920166015625" y1="112.47200012207031" x2="535.7960205078125" y2="100.09300231933594" stroke-width="1.65517333984375"/><line stroke="#f00" opacity="1" x1="565.7210083007812" y1="214.9980010986328" x2="548.7069702148438" y2="172.18099975585938" stroke-width="1.65517333984375"/><line stroke="#f00" opacity="1" x1="565.4310302734375" y1="129.4720001220703" x2="523.8569946289062" y2="147.33200073242188" stroke-width="1.65517333984375"/><line stroke="#f00" opacity="1" x1="555.7559814453125" y1="154.86000061035156" x2="565.4310302734375" y2="129.4720001220703" stroke-width="1.65517333984375"/><line stroke="#f00" opacity="1" x1="555.7559814453125" y1="154.86000061035156" x2="548.7069702148438" y2="172.18099975585938" stroke-width="1.65517333984375"/><line stroke="#f00" opacity="1" x1="548.1929931640625" y1="146.8300018310547" x2="555.7559814453125" y2="154.86000061035156" stroke-width="1.65517333984375"/><line stroke="#f00" opacity="1" x1="480.7170104980469" y1="334.55499267578125" x2="565.4639892578125" y2="334.677001953125" stroke-width="1.65517333984375"/><line stroke="#f00" opacity="1" x1="395.510986328125" y1="334.6629943847656" x2="335.6719970703125" y2="274.6570129394531" stroke-width="1.65517333984375"/><line stroke="#f00" opacity="1" x1="395.510986328125" y1="334.6629943847656" x2="275.5369873046875" y2="454.63800048828125" stroke-width="1.65517333984375"/><line stroke="#f00" opacity="1" x1="546.2750244140625" y1="287.3819885253906" x2="480.4830017089844" y2="129.51600646972656" stroke-width="1.65517333984375"/><line stroke="#f00" opacity="1" x1="546.2750244140625" y1="287.3819885253906" x2="565.4639892578125" y2="334.677001953125" stroke-width="1.65517333984375"/><line stroke="#f00" opacity="1" x1="532.9089965820312" y1="413.3689880371094" x2="565.4639892578125" y2="334.677001953125" stroke-width="1.65517333984375"/><line stroke="#f00" opacity="1" x1="532.9089965820312" y1="413.3689880371094" x2="480.49700927734375" y2="539.7559814453125" stroke-width="1.65517333984375"/><line stroke="#f00" opacity="1" x1="275.447998046875" y1="334.6400146484375" x2="275.62298583984375" y2="394.5880126953125" stroke-width="1.65517333984375"/><line stroke="#f00" opacity="1" x1="275.447998046875" y1="334.6400146484375" x2="334.98699951171875" y2="334.59698486328125" stroke-width="1.65517333984375"/><line stroke="#f00" opacity="1" x1="428.08099365234375" y1="413.3970031738281" x2="376.2950134277344" y2="435.3800048828125" stroke-width="1.65517333984375"/><line stroke="#f00" opacity="1" x1="390.74200439453125" y1="450.718994140625" x2="354.135009765625" y2="487.3389892578125" stroke-width="1.65517333984375"/><line stroke="#f00" opacity="1" x1="428.08099365234375" y1="413.3970031738281" x2="480.7330017089844" y2="413.3680114746094" stroke-width="1.65517333984375"/><line stroke="#f00" opacity="1" x1="275.5369873046875" y1="454.63800048828125" x2="334.0329895019531" y2="539.7520141601562" stroke-width="1.65517333984375"/><line stroke="#f00" opacity="1" x1="395.510986328125" y1="334.6629943847656" x2="480.2879943847656" y2="391.77398681640625" stroke-width="1.65517333984375"/><line stroke="#f00" opacity="1" x1="395.510986328125" y1="334.6629943847656" x2="446.0450134277344" y2="300.3429870605469" stroke-width="1.65517333984375"/><line stroke="#f00" opacity="1" x1="384.04998779296875" y1="274.6570129394531" x2="415.3819885253906" y2="287.66900634765625" stroke-width="1.65517333984375"/><line stroke="#f00" opacity="1" x1="546.2750244140625" y1="287.3819885253906" x2="514.927001953125" y2="300.343994140625" stroke-width="1.65517333984375"/><line stroke="#f00" opacity="1" x1="565.7940063476562" y1="258.2919921875" x2="480.4830017089844" y2="129.51600646972656" stroke-width="1.65517333984375"/><line stroke="#f00" opacity="1" x1="275.5369873046875" y1="454.63800048828125" x2="215.531005859375" y2="394.79901123046875" stroke-width="1.65517333984375"/><line stroke="#f00" opacity="1" x1="275.5369873046875" y1="454.63800048828125" x2="241.21600341796875" y2="505.17401123046875" stroke-width="1.65517333984375"/><line stroke="#f00" opacity="1" x1="215.52999877929688" y1="443.1780090332031" x2="228.54200744628906" y2="474.510986328125" stroke-width="1.65517333984375"/><line stroke="#f00" opacity="1" x1="498.0369873046875" y1="86.13600158691406" x2="480.4830017089844" y2="129.51600646972656" stroke-width="1.65517333984375"/><line stroke="#f00" opacity="1" x1="509.91400146484375" y1="74.1969985961914" x2="522.885986328125" y2="61.2869987487793" stroke-width="1.65517333984375"/><line stroke="#f00" opacity="1" x1="509.91400146484375" y1="74.1969985961914" x2="498.0369873046875" y2="86.13600158691406" stroke-width="1.65517333984375"/><line stroke="#f00" opacity="1" x1="462.67498779296875" y1="86.13600158691406" x2="480.4830017089844" y2="129.51600646972656" stroke-width="1.65517333984375"/><line stroke="#f00" opacity="1" x1="437.82501220703125" y1="61.2869987487793" x2="462.67498779296875" y2="86.13600158691406" stroke-width="1.65517333984375"/><line stroke="#f00" opacity="1" x1="196.63800048828125" y1="77.08799743652344" x2="218.2310028076172" y2="129.70899963378906" stroke-width="1.65517333984375"/><line stroke="#f00" opacity="1" x1="163.43299865722656" y1="43.972999572753906" x2="196.63800048828125" y2="77.08799743652344" stroke-width="1.65517333984375"/><line stroke="#f00" opacity="1" x1="309.6619873046875" y1="163.9510040283203" x2="275.45098876953125" y2="129.2790069580078" stroke-width="1.65517333984375"/><line stroke="#f00" opacity="1" x1="480.4830017089844" y1="129.51600646972656" x2="309.6619873046875" y2="163.9510040283203" stroke-width="1.65517333984375"/><line stroke="#f00" opacity="1" x1="104.8270034790039" y1="368.7829895019531" x2="69.72699737548828" y2="334.5090026855469" stroke-width="1.65517333984375"/><line stroke="#f00" opacity="1" x1="70.39199829101562" y1="539.6090087890625" x2="104.8270034790039" y2="368.7829895019531" stroke-width="1.65517333984375"/><line stroke="#f00" opacity="1" x1="523.8569946289062" y1="111.97000122070312" x2="480.4830017089844" y2="129.51600646972656" stroke-width="1.65517333984375"/><line stroke="#f00" opacity="1" x1="535.7960205078125" y1="100.09300231933594" x2="548.7050170898438" y2="87.12100219726562" stroke-width="1.65517333984375"/><line stroke="#f00" opacity="1" x1="535.7960205078125" y1="100.09300231933594" x2="523.8569946289062" y2="111.97000122070312" stroke-width="1.65517333984375"/><line stroke="#f00" opacity="1" x1="523.8569946289062" y1="147.33200073242188" x2="480.4830017089844" y2="129.51600646972656" stroke-width="1.65517333984375"/><line stroke="#f00" opacity="1" x1="548.7069702148438" y1="172.18099975585938" x2="523.8569946289062" y2="147.33200073242188" stroke-width="1.65517333984375"/><line stroke="#f00" opacity="1" x1="532.9089965820312" y1="413.3689880371094" x2="480.2879943847656" y2="391.77398681640625" stroke-width="1.65517333984375"/><line stroke="#f00" opacity="1" x1="566.0250244140625" y1="446.5719909667969" x2="532.9089965820312" y2="413.3689880371094" stroke-width="1.65517333984375"/><line stroke="#f00" opacity="1" x1="446.0450134277344" y1="300.3429870605469" x2="480.7170104980469" y2="334.55499267578125" stroke-width="1.65517333984375"/><line stroke="#f00" opacity="1" x1="480.4830017089844" y1="129.51600646972656" x2="446.0450134277344" y2="300.3429870605469" stroke-width="1.65517333984375"/><line stroke="#f00" opacity="1" x1="241.21600341796875" y1="505.17401123046875" x2="275.489990234375" y2="540.2760009765625" stroke-width="1.65517333984375"/><line stroke="#f00" opacity="1" x1="70.39199829101562" y1="539.6090087890625" x2="241.21600341796875" y2="505.17401123046875" stroke-width="1.65517333984375"/><line stroke="#00f" opacity="1" x1="480.4830017089844" y1="129.51600646972656" x2="480.5350036621094" y2="44.5620002746582" stroke-width="1.65517333984375"/><line stroke="#00f" opacity="1" x1="498.0369873046875" y1="86.13600158691406" x2="497.53399658203125" y2="61.79999923706055" stroke-width="1.65517333984375"/><line stroke="#00f" opacity="1" x1="522.885986328125" y1="61.2869987487793" x2="497.53399658203125" y2="61.79999923706055" stroke-width="1.65517333984375"/><line stroke="#00f" opacity="1" x1="509.91400146484375" y1="74.1969985961914" x2="522.9030151367188" y2="87.18000030517578" stroke-width="1.65517333984375"/><line stroke="#00f" opacity="1" x1="480.5350036621094" y1="44.5620002746582" x2="497.53399658203125" y2="61.79999923706055" stroke-width="1.65517333984375"/><line stroke="#00f" opacity="1" x1="522.9030151367188" y1="87.18000030517578" x2="565.718017578125" y2="44.30400085449219" stroke-width="1.65517333984375"/><line stroke="#00f" opacity="1" x1="462.67498779296875" y1="86.13600158691406" x2="463.177001953125" y2="61.79999923706055" stroke-width="1.65517333984375"/><line stroke="#00f" opacity="1" x1="437.82501220703125" y1="61.2869987487793" x2="463.177001953125" y2="61.79999923706055" stroke-width="1.65517333984375"/><line stroke="#00f" opacity="1" x1="480.5350036621094" y1="44.5620002746582" x2="463.177001953125" y2="61.79999923706055" stroke-width="1.65517333984375"/><line stroke="#00f" opacity="1" x1="455.1470031738281" y1="54.23699951171875" x2="455.1470031738281" y2="44.20199966430664" stroke-width="1.65517333984375"/><line stroke="#00f" opacity="1" x1="322.33599853515625" y1="194.61300659179688" x2="480.4830017089844" y2="129.51600646972656" stroke-width="1.65517333984375"/><line stroke="#00f" opacity="1" x1="322.33599853515625" y1="194.61300659179688" x2="275.34100341796875" y2="214.48500061035156" stroke-width="1.65517333984375"/><line stroke="#00f" opacity="1" x1="196.60800170898438" y1="181.91700744628906" x2="275.34100341796875" y2="214.48500061035156" stroke-width="1.65517333984375"/><line stroke="#00f" opacity="1" x1="196.60800170898438" y1="181.91700744628906" x2="70.25" y2="129.5019989013672" stroke-width="1.65517333984375"/><line stroke="#00f" opacity="1" x1="122.66400146484375" y1="255.86300659179688" x2="155.36399841308594" y2="334.46099853515625" stroke-width="1.65517333984375"/><line stroke="#00f" opacity="1" x1="122.66400146484375" y1="255.86300659179688" x2="70.25" y2="129.5019989013672" stroke-width="1.65517333984375"/><line stroke="#00f" opacity="1" x1="275.406005859375" y1="275.0090026855469" x2="215.41400146484375" y2="334.3739929199219" stroke-width="1.65517333984375"/><line stroke="#00f" opacity="1" x1="275.406005859375" y1="275.0090026855469" x2="305.385986328125" y2="304.65899658203125" stroke-width="1.65517333984375"/><line stroke="#00f" opacity="1" x1="275.34100341796875" y1="214.48500061035156" x2="275.45098876953125" y2="129.2790069580078" stroke-width="1.65517333984375"/><line stroke="#00f" opacity="1" x1="155.36399841308594" y1="334.46099853515625" x2="69.72699737548828" y2="334.5090026855469" stroke-width="1.65517333984375"/><line stroke="#00f" opacity="1" x1="215.41400146484375" y1="334.3739929199219" x2="155.36399841308594" y2="334.46099853515625" stroke-width="1.65517333984375"/><line stroke="#00f" opacity="1" x1="275.406005859375" y1="275.0090026855469" x2="275.34100341796875" y2="214.48500061035156" stroke-width="1.65517333984375"/><line stroke="#00f" opacity="1" x1="275.34100341796875" y1="214.48500061035156" x2="174.62399291992188" y2="233.7030029296875" stroke-width="1.65517333984375"/><line stroke="#00f" opacity="1" x1="174.62399291992188" y1="233.7030029296875" x2="155.36399841308594" y2="334.46099853515625" stroke-width="1.65517333984375"/><line stroke="#00f" opacity="1" x1="159.28500366210938" y1="219.2550048828125" x2="174.62399291992188" y2="233.7030029296875" stroke-width="1.65517333984375"/><line stroke="#00f" opacity="1" x1="159.28500366210938" y1="219.2550048828125" x2="70.25" y2="129.5019989013672" stroke-width="1.65517333984375"/><line stroke="#00f" opacity="1" x1="218.2310028076172" y1="129.70899963378906" x2="196.60800170898438" y2="181.91700744628906" stroke-width="1.65517333984375"/><line stroke="#00f" opacity="1" x1="196.60800170898438" y1="181.91700744628906" x2="159.28500366210938" y2="219.2550048828125" stroke-width="1.65517333984375"/><line stroke="#00f" opacity="1" x1="196.63800048828125" y1="77.08799743652344" x2="196.63800048828125" y2="129.26499938964844" stroke-width="1.65517333984375"/><line stroke="#00f" opacity="1" x1="181.593994140625" y1="43.7239990234375" x2="196.63800048828125" y2="77.08799743652344" stroke-width="1.65517333984375"/><line stroke="#00f" opacity="1" x1="122.66400146484375" y1="255.86300659179688" x2="70.25" y2="255.86300659179688" stroke-width="1.65517333984375"/><line stroke="#00f" opacity="1" x1="218.2310028076172" y1="129.70899963378906" x2="275.3299865722656" y2="44.53200149536133" stroke-width="1.65517333984375"/><line stroke="#00f" opacity="1" x1="275.34100341796875" y1="214.48500061035156" x2="335.34698486328125" y2="225.94500732421875" stroke-width="1.65517333984375"/><line stroke="#00f" opacity="1" x1="335.6719970703125" y1="274.6570129394531" x2="335.34698486328125" y2="225.94500732421875" stroke-width="1.65517333984375"/><line stroke="#00f" opacity="1" x1="335.34698486328125" y1="225.94500732421875" x2="480.4830017089844" y2="129.51600646972656" stroke-width="1.65517333984375"/><line stroke="#00f" opacity="1" x1="322.33599853515625" y1="194.61300659179688" x2="309.6619873046875" y2="163.9510040283203" stroke-width="1.65517333984375"/><line stroke="#00f" opacity="1" x1="275.3299865722656" y1="44.53200149536133" x2="309.6619873046875" y2="95.06900024414062" stroke-width="1.65517333984375"/><line stroke="#00f" opacity="1" x1="275.45098876953125" y1="129.2790069580078" x2="309.6619873046875" y2="95.06900024414062" stroke-width="1.65517333984375"/><line stroke="#00f" opacity="1" x1="309.6619873046875" y1="95.06900024414062" x2="480.4830017089844" y2="129.51600646972656" stroke-width="1.65517333984375"/><line stroke="#00f" opacity="1" x1="322.625" y1="63.72100067138672" x2="330.2099914550781" y2="44.68000030517578" stroke-width="1.65517333984375"/><line stroke="#00f" opacity="1" x1="275.447998046875" y1="334.6400146484375" x2="305.385986328125" y2="304.65899658203125" stroke-width="1.65517333984375"/><line stroke="#00f" opacity="1" x1="135.49099731445312" y1="381.4570007324219" x2="70.39199829101562" y2="539.6090087890625" stroke-width="1.65517333984375"/><line stroke="#00f" opacity="1" x1="135.49099731445312" y1="381.4570007324219" x2="155.36399841308594" y2="334.46099853515625" stroke-width="1.65517333984375"/><line stroke="#00f" opacity="1" x1="215.41400146484375" y1="334.3739929199219" x2="245.53399658203125" y2="364.510986328125" stroke-width="1.65517333984375"/><line stroke="#00f" opacity="1" x1="155.36399841308594" y1="334.46099853515625" x2="166.822998046875" y2="394.4679870605469" stroke-width="1.65517333984375"/><line stroke="#00f" opacity="1" x1="215.531005859375" y1="394.79901123046875" x2="166.822998046875" y2="394.4679870605469" stroke-width="1.65517333984375"/><line stroke="#00f" opacity="1" x1="166.822998046875" y1="394.4679870605469" x2="70.39199829101562" y2="539.6090087890625" stroke-width="1.65517333984375"/><line stroke="#00f" opacity="1" x1="135.49099731445312" y1="381.4570007324219" x2="104.8270034790039" y2="368.7829895019531" stroke-width="1.65517333984375"/><line stroke="#00f" opacity="1" x1="275.447998046875" y1="334.6400146484375" x2="245.53399658203125" y2="364.510986328125" stroke-width="1.65517333984375"/><line stroke="#00f" opacity="1" x1="480.4830017089844" y1="129.51600646972656" x2="565.4310302734375" y2="129.4720001220703" stroke-width="1.65517333984375"/><line stroke="#00f" opacity="1" x1="523.8569946289062" y1="111.97000122070312" x2="548.1920166015625" y2="112.47200012207031" stroke-width="1.65517333984375"/><line stroke="#00f" opacity="1" x1="548.7050170898438" y1="87.12100219726562" x2="548.1920166015625" y2="112.47200012207031" stroke-width="1.65517333984375"/><line stroke="#00f" opacity="1" x1="535.7960205078125" y1="100.09300231933594" x2="522.9030151367188" y2="87.18000030517578" stroke-width="1.65517333984375"/><line stroke="#00f" opacity="1" x1="565.4310302734375" y1="129.4720001220703" x2="548.1920166015625" y2="112.47200012207031" stroke-width="1.65517333984375"/><line stroke="#00f" opacity="1" x1="523.8569946289062" y1="147.33200073242188" x2="548.1929931640625" y2="146.8300018310547" stroke-width="1.65517333984375"/><line stroke="#00f" opacity="1" x1="548.7069702148438" y1="172.18099975585938" x2="548.1929931640625" y2="146.8300018310547" stroke-width="1.65517333984375"/><line stroke="#00f" opacity="1" x1="565.4310302734375" y1="129.4720001220703" x2="548.1929931640625" y2="146.8300018310547" stroke-width="1.65517333984375"/><line stroke="#00f" opacity="1" x1="555.7559814453125" y1="154.86000061035156" x2="565.791015625" y2="154.86000061035156" stroke-width="1.65517333984375"/><line stroke="#00f" opacity="1" x1="415.3819885253906" y1="287.66900634765625" x2="480.4830017089844" y2="129.51600646972656" stroke-width="1.65517333984375"/><line stroke="#00f" opacity="1" x1="415.3819885253906" y1="287.66900634765625" x2="395.510986328125" y2="334.6629943847656" stroke-width="1.65517333984375"/><line stroke="#00f" opacity="1" x1="428.08099365234375" y1="413.3970031738281" x2="395.510986328125" y2="334.6629943847656" stroke-width="1.65517333984375"/><line stroke="#00f" opacity="1" x1="428.08099365234375" y1="413.3970031738281" x2="480.49700927734375" y2="539.7559814453125" stroke-width="1.65517333984375"/><line stroke="#00f" opacity="1" x1="354.135009765625" y1="487.3389892578125" x2="275.5369873046875" y2="454.63800048828125" stroke-width="1.65517333984375"/><line stroke="#00f" opacity="1" x1="354.135009765625" y1="487.3389892578125" x2="480.49700927734375" y2="539.7559814453125" stroke-width="1.65517333984375"/><line stroke="#00f" opacity="1" x1="334.98699951171875" y1="334.59698486328125" x2="275.62298583984375" y2="394.5880126953125" stroke-width="1.65517333984375"/><line stroke="#00f" opacity="1" x1="334.98699951171875" y1="334.59698486328125" x2="305.385986328125" y2="304.65899658203125" stroke-width="1.65517333984375"/><line stroke="#00f" opacity="1" x1="395.510986328125" y1="334.6629943847656" x2="480.7170104980469" y2="334.55499267578125" stroke-width="1.65517333984375"/><line stroke="#00f" opacity="1" x1="275.5369873046875" y1="454.63800048828125" x2="275.489990234375" y2="540.2760009765625" stroke-width="1.65517333984375"/><line stroke="#00f" opacity="1" x1="275.62298583984375" y1="394.5880126953125" x2="275.5369873046875" y2="454.63800048828125" stroke-width="1.65517333984375"/><line stroke="#00f" opacity="1" x1="334.98699951171875" y1="334.59698486328125" x2="395.510986328125" y2="334.6629943847656" stroke-width="1.65517333984375"/><line stroke="#00f" opacity="1" x1="395.510986328125" y1="334.6629943847656" x2="376.2950134277344" y2="435.3800048828125" stroke-width="1.65517333984375"/><line stroke="#00f" opacity="1" x1="376.2950134277344" y1="435.3800048828125" x2="275.5369873046875" y2="454.63800048828125" stroke-width="1.65517333984375"/><line stroke="#00f" opacity="1" x1="390.74200439453125" y1="450.718994140625" x2="376.2950134277344" y2="435.3800048828125" stroke-width="1.65517333984375"/><line stroke="#00f" opacity="1" x1="390.74200439453125" y1="450.718994140625" x2="480.49700927734375" y2="539.7559814453125" stroke-width="1.65517333984375"/><line stroke="#00f" opacity="1" x1="480.2879943847656" y1="391.77398681640625" x2="428.08099365234375" y2="413.3970031738281" stroke-width="1.65517333984375"/><line stroke="#00f" opacity="1" x1="428.08099365234375" y1="413.3970031738281" x2="390.74200439453125" y2="450.718994140625" stroke-width="1.65517333984375"/><line stroke="#00f" opacity="1" x1="532.9089965820312" y1="413.3689880371094" x2="480.7330017089844" y2="413.3680114746094" stroke-width="1.65517333984375"/><line stroke="#00f" opacity="1" x1="566.2739868164062" y1="428.4129943847656" x2="532.9089965820312" y2="413.3689880371094" stroke-width="1.65517333984375"/><line stroke="#00f" opacity="1" x1="354.135009765625" y1="487.3389892578125" x2="354.135986328125" y2="539.7529907226562" stroke-width="1.65517333984375"/><line stroke="#00f" opacity="1" x1="480.2879943847656" y1="391.77398681640625" x2="565.4639892578125" y2="334.677001953125" stroke-width="1.65517333984375"/><line stroke="#00f" opacity="1" x1="395.510986328125" y1="334.6629943847656" x2="384.04998779296875" y2="274.6570129394531" stroke-width="1.65517333984375"/><line stroke="#00f" opacity="1" x1="335.6719970703125" y1="274.6570129394531" x2="384.04998779296875" y2="274.6570129394531" stroke-width="1.65517333984375"/><line stroke="#00f" opacity="1" x1="384.04998779296875" y1="274.6570129394531" x2="480.4830017089844" y2="129.51600646972656" stroke-width="1.65517333984375"/><line stroke="#00f" opacity="1" x1="415.3819885253906" y1="287.66900634765625" x2="446.0450134277344" y2="300.3429870605469" stroke-width="1.65517333984375"/><line stroke="#00f" opacity="1" x1="565.4639892578125" y1="334.677001953125" x2="514.927001953125" y2="300.343994140625" stroke-width="1.65517333984375"/><line stroke="#00f" opacity="1" x1="480.7170104980469" y1="334.55499267578125" x2="514.927001953125" y2="300.343994140625" stroke-width="1.65517333984375"/><line stroke="#00f" opacity="1" x1="514.927001953125" y1="300.343994140625" x2="480.4830017089844" y2="129.51600646972656" stroke-width="1.65517333984375"/><line stroke="#00f" opacity="1" x1="546.2750244140625" y1="287.3819885253906" x2="565.3159790039062" y2="279.7969970703125" stroke-width="1.65517333984375"/><line stroke="#00f" opacity="1" x1="228.54200744628906" y1="474.510986328125" x2="70.39199829101562" y2="539.6090087890625" stroke-width="1.65517333984375"/><line stroke="#00f" opacity="1" x1="228.54200744628906" y1="474.510986328125" x2="275.5369873046875" y2="454.63800048828125" stroke-width="1.65517333984375"/><line stroke="#00f" opacity="1" x1="275.62298583984375" y1="394.5880126953125" x2="245.53399658203125" y2="364.510986328125" stroke-width="1.65517333984375"/><line stroke="#00f" opacity="1" x1="275.5369873046875" y1="454.63800048828125" x2="215.52999877929688" y2="443.1780090332031" stroke-width="1.65517333984375"/><line stroke="#00f" opacity="1" x1="215.531005859375" y1="394.79901123046875" x2="215.52999877929688" y2="443.1780090332031" stroke-width="1.65517333984375"/><line stroke="#00f" opacity="1" x1="215.52999877929688" y1="443.1780090332031" x2="70.39199829101562" y2="539.6090087890625" stroke-width="1.65517333984375"/><line stroke="#00f" opacity="1" x1="228.54200744628906" y1="474.510986328125" x2="241.21600341796875" y2="505.17401123046875" stroke-width="1.65517333984375"/><line stroke="#00f" opacity="1" x1="395.00799560546875" y1="44.27299880981445" x2="480.4830017089844" y2="129.51600646972656" stroke-width="1.65517333984375"/><line stroke="#00f" opacity="1" x1="565.7210083007812" y1="214.9980010986328" x2="480.4830017089844" y2="129.51600646972656" stroke-width="1.65517333984375"/></svg>